<svg width="20" height="20" viewBox="0 0 20 20" fill="none" xmlns="http://www.w3.org/2000/svg">
<path d="M20 10C20 4.47715 15.5228 0 10 0C4.47715 0 0 4.47715 0 10C0 15.5228 4.47715 20 10 20C15.5228 20 20 15.5228 20 10Z" fill="url(#paint0_radial_505_19)"/>
<path d="M6.60976 7.20824C8.48214 5.37502 11.5179 5.37502 13.3903 7.20824L13.6156 7.42887C13.7092 7.52053 13.7092 7.66915 13.6156 7.76081L12.8447 8.51554C12.7979 8.56137 12.722 8.56137 12.6752 8.51554L12.3651 8.21193C11.0589 6.93303 8.94111 6.93303 7.63489 8.21193L7.30279 8.53707C7.25598 8.5829 7.18009 8.5829 7.13328 8.53707L6.36242 7.78234C6.2688 7.69068 6.2688 7.54207 6.36242 7.4504L6.60976 7.20824ZM14.9845 8.76911L15.6705 9.44083C15.7641 9.53249 15.7641 9.6811 15.6705 9.77276L12.577 12.8016C12.4834 12.8933 12.3316 12.8933 12.238 12.8016C12.238 12.8016 12.238 12.8016 12.238 12.8016L10.0424 10.652C10.019 10.629 9.98105 10.629 9.95765 10.652C9.95765 10.652 9.95765 10.652 9.95764 10.652L7.7621 12.8016C7.66849 12.8933 7.5167 12.8933 7.42308 12.8016C7.42308 12.8016 7.42308 12.8016 7.42308 12.8016L4.32948 9.77272C4.23586 9.68106 4.23586 9.53245 4.32948 9.44079L5.01554 8.76907C5.10916 8.67741 5.26095 8.67741 5.35457 8.76907L7.55019 10.9188C7.57359 10.9417 7.61154 10.9417 7.63494 10.9188C7.63494 10.9188 7.63494 10.9188 7.63494 10.9188L9.83046 8.76907C9.92407 8.67741 10.0759 8.67741 10.1695 8.76907C10.1695 8.76907 10.1695 8.76907 10.1695 8.76907L12.3651 10.9188C12.3885 10.9417 12.4265 10.9417 12.4499 10.9188L14.6454 8.76911C14.7391 8.67745 14.8908 8.67745 14.9845 8.76911Z" fill="white"/>
<defs>
<radialGradient id="paint0_radial_505_19" cx="0" cy="0" r="1" gradientUnits="userSpaceOnUse" gradientTransform="translate(0 10) scale(20)">
<stop stop-color="#5D9DF6"/>
<stop offset="1" stop-color="#006FFF"/>
</radialGradient>
</defs>
</svg>
